<?xml version="1.0" encoding="utf-8"?>
<!-- Generator: Adobe Illustrator 16.0.0, SVG Export Plug-In . SVG Version: 6.00 Build 0)  -->
<!DOCTYPE svg PUBLIC "-//W3C//DTD SVG 1.1//EN" "http://www.w3.org/Graphics/SVG/1.1/DTD/svg11.dtd">
<svg version="1.1" id="Layer_1" xmlns="http://www.w3.org/2000/svg" xmlns:xlink="http://www.w3.org/1999/xlink" x="0px" y="0px"
	 width="510px" height="510px" viewBox="0 0 510 510" enable-background="new 0 0 510 510" xml:space="preserve">
<g>
	<defs>
		<rect id="SVGID_1_" x="-32" y="-34" width="576" height="576"/>
	</defs>
	<clipPath id="SVGID_2_">
		<use xlink:href="#SVGID_1_"  overflow="visible"/>
	</clipPath>
	<rect display="none" clip-path="url(#SVGID_2_)" width="510" height="510"/>
	<path clip-path="url(#SVGID_2_)" fill="#FFFFFF" d="M226.394,182.572c1.154,62.218-49.516,112.888-111.734,111.734
		C56.024,293.22,8.178,245.373,7.091,186.736C5.937,124.519,56.606,73.85,118.824,75.002
		C177.46,76.089,225.307,123.937,226.394,182.572"/>
	<path clip-path="url(#SVGID_2_)" fill="#FFFFFF" d="M361.349,8.13c58.636,1.087,106.483,48.934,107.57,107.57
		c1.152,62.218-49.517,112.887-111.734,111.733c-58.636-1.087-106.483-48.933-107.57-107.569
		C248.462,57.646,299.131,6.976,361.349,8.13"/>
	<path clip-path="url(#SVGID_2_)" fill="#FFFFFF" d="M490.363,354.198l-43.367-25.119c-2.96-1.715-4.781-4.879-4.775-8.3
		l0.086-61.174c0.005-3.421,1.834-6.58,4.8-8.287l43.437-24.997c6.39-3.677,14.363,0.942,14.354,8.314l-0.157,111.291
		C504.729,353.298,496.742,357.894,490.363,354.198"/>
	<path clip-path="url(#SVGID_2_)" fill="#FFFFFF" d="M359.267,235.478c-37.548,0-70.984-17.588-92.533-44.97
		c-2.917-3.706-7.384-5.853-12.101-5.853h-4.698c-7.853,0-14.442,5.895-15.339,13.696c-6.79,59.069-56.965,104.939-117.854,104.939
		c-6.75,0-13.364-0.572-19.802-1.663c-9.494-1.609-18.191,5.563-18.191,15.192v59.686c0,8.535,6.919,15.455,15.455,15.455h334.858
		c8.536,0,15.455-6.92,15.455-15.455V231.183c0-12.084-13.253-19.509-23.536-13.164C403.038,229.09,381.898,235.478,359.267,235.478
		"/>
	<path clip-path="url(#SVGID_2_)" fill="#FFFFFF" d="M64.138,500.974h395.431V399.87H64.138V500.974z M83.306,495.919h-8.004
		c-3.955,0-7.162-3.206-7.162-7.161c0-3.956,3.207-7.162,7.162-7.162h8.004c3.955,0,7.162,3.206,7.162,7.162
		C90.468,492.713,87.261,495.919,83.306,495.919 M83.306,418.827h-8.004c-3.955,0-7.162-3.206-7.162-7.162
		c0-3.955,3.207-7.161,7.162-7.161h8.004c3.955,0,7.162,3.206,7.162,7.161C90.468,415.621,87.261,418.827,83.306,418.827
		 M114.48,495.919h-8.004c-3.956,0-7.162-3.206-7.162-7.161c0-3.956,3.206-7.162,7.162-7.162h8.004c3.955,0,7.161,3.206,7.161,7.162
		C121.641,492.713,118.435,495.919,114.48,495.919 M114.48,418.827h-8.004c-3.956,0-7.162-3.206-7.162-7.162
		c0-3.955,3.206-7.161,7.162-7.161h8.004c3.955,0,7.161,3.206,7.161,7.161C121.641,415.621,118.435,418.827,114.48,418.827
		 M145.864,495.919h-8.004c-3.955,0-7.161-3.206-7.161-7.161c0-3.956,3.206-7.162,7.161-7.162h8.004
		c3.956,0,7.162,3.206,7.162,7.162C153.026,492.713,149.82,495.919,145.864,495.919 M145.864,418.827h-8.004
		c-3.955,0-7.161-3.206-7.161-7.162c0-3.955,3.206-7.161,7.161-7.161h8.004c3.956,0,7.162,3.206,7.162,7.161
		C153.026,415.621,149.82,418.827,145.864,418.827 M175.142,495.919h-8.004c-3.955,0-7.161-3.206-7.161-7.161
		c0-3.956,3.206-7.162,7.161-7.162h8.004c3.956,0,7.162,3.206,7.162,7.162C182.304,492.713,179.098,495.919,175.142,495.919
		 M175.142,418.827h-8.004c-3.955,0-7.161-3.206-7.161-7.162c0-3.955,3.206-7.161,7.161-7.161h8.004
		c3.956,0,7.162,3.206,7.162,7.161C182.304,415.621,179.098,418.827,175.142,418.827 M205.474,495.919h-8.004
		c-3.956,0-7.162-3.206-7.162-7.161c0-3.956,3.206-7.162,7.162-7.162h8.004c3.955,0,7.161,3.206,7.161,7.162
		C212.635,492.713,209.429,495.919,205.474,495.919 M205.474,418.827h-8.004c-3.956,0-7.162-3.206-7.162-7.162
		c0-3.955,3.206-7.161,7.162-7.161h8.004c3.955,0,7.161,3.206,7.161,7.161C212.635,415.621,209.429,418.827,205.474,418.827
		 M235.805,495.919h-8.004c-3.955,0-7.162-3.206-7.162-7.161c0-3.956,3.207-7.162,7.162-7.162h8.004
		c3.955,0,7.162,3.206,7.162,7.162C242.967,492.713,239.76,495.919,235.805,495.919 M235.805,418.827h-8.004
		c-3.955,0-7.162-3.206-7.162-7.162c0-3.955,3.207-7.161,7.162-7.161h8.004c3.955,0,7.162,3.206,7.162,7.161
		C242.967,415.621,239.76,418.827,235.805,418.827 M266.979,495.919h-8.004c-3.956,0-7.163-3.206-7.163-7.161
		c0-3.956,3.207-7.162,7.163-7.162h8.004c3.955,0,7.162,3.206,7.162,7.162C274.142,492.713,270.935,495.919,266.979,495.919
		 M266.979,418.827h-8.004c-3.956,0-7.163-3.206-7.163-7.162c0-3.955,3.207-7.161,7.163-7.161h8.004
		c3.955,0,7.162,3.206,7.162,7.161C274.142,415.621,270.935,418.827,266.979,418.827 M296.152,495.919h-8.004
		c-3.956,0-7.162-3.206-7.162-7.161c0-3.956,3.206-7.162,7.162-7.162h8.004c3.955,0,7.161,3.206,7.161,7.162
		C303.313,492.713,300.107,495.919,296.152,495.919 M296.152,418.827h-8.004c-3.956,0-7.162-3.206-7.162-7.162
		c0-3.955,3.206-7.161,7.162-7.161h8.004c3.955,0,7.161,3.206,7.161,7.161C303.313,415.621,300.107,418.827,296.152,418.827
		 M325.431,495.919h-8.005c-3.954,0-7.161-3.206-7.161-7.161c0-3.956,3.207-7.162,7.161-7.162h8.005
		c3.954,0,7.161,3.206,7.161,7.162C332.592,492.713,329.385,495.919,325.431,495.919 M325.431,418.827h-8.005
		c-3.954,0-7.161-3.206-7.161-7.162c0-3.955,3.207-7.161,7.161-7.161h8.005c3.954,0,7.161,3.206,7.161,7.161
		C332.592,415.621,329.385,418.827,325.431,418.827 M355.761,495.919h-8.004c-3.955,0-7.161-3.206-7.161-7.161
		c0-3.956,3.206-7.162,7.161-7.162h8.004c3.956,0,7.162,3.206,7.162,7.162C362.923,492.713,359.717,495.919,355.761,495.919
		 M355.761,418.827h-8.004c-3.955,0-7.161-3.206-7.161-7.162c0-3.955,3.206-7.161,7.161-7.161h8.004
		c3.956,0,7.162,3.206,7.162,7.161C362.923,415.621,359.717,418.827,355.761,418.827 M386.093,495.919h-8.004
		c-3.956,0-7.162-3.206-7.162-7.161c0-3.956,3.206-7.162,7.162-7.162h8.004c3.955,0,7.161,3.206,7.161,7.162
		C393.254,492.713,390.048,495.919,386.093,495.919 M386.093,418.827h-8.004c-3.956,0-7.162-3.206-7.162-7.162
		c0-3.955,3.206-7.161,7.162-7.161h8.004c3.955,0,7.161,3.206,7.161,7.161C393.254,415.621,390.048,418.827,386.093,418.827
		 M417.268,495.919h-8.006c-3.954,0-7.16-3.206-7.16-7.161c0-3.956,3.206-7.162,7.16-7.162h8.006c3.955,0,7.16,3.206,7.16,7.162
		C424.428,492.713,421.223,495.919,417.268,495.919 M417.268,418.827h-8.006c-3.954,0-7.16-3.206-7.16-7.162
		c0-3.955,3.206-7.161,7.16-7.161h8.006c3.955,0,7.16,3.206,7.16,7.161C424.428,415.621,421.223,418.827,417.268,418.827
		 M448.651,495.919h-8.004c-3.955,0-7.162-3.206-7.162-7.161c0-3.956,3.207-7.162,7.162-7.162h8.004
		c3.955,0,7.162,3.206,7.162,7.162C455.813,492.713,452.606,495.919,448.651,495.919 M448.651,418.827h-8.004
		c-3.955,0-7.162-3.206-7.162-7.162c0-3.955,3.207-7.161,7.162-7.161h8.004c3.955,0,7.162,3.206,7.162,7.161
		C455.813,415.621,452.606,418.827,448.651,418.827"/>
</g>
<text transform="matrix(1 0 0 1 72.75 474.8369)"><tspan x="0" y="0" font-family="'Montserrat-Bold'" font-size="72.4582" letter-spacing="10">FL</tspan><tspan x="106.948" y="0" font-family="'Montserrat-Bold'" font-size="72.4582" letter-spacing="10">IX KI</tspan><tspan x="329.391" y="0" font-family="'Montserrat-Bold'" font-size="72.4582">T</tspan></text>
</svg>
