<?xml version="1.0" encoding="utf-8"?>
<!-- Generator: Adobe Illustrator 16.0.0, SVG Export Plug-In . SVG Version: 6.00 Build 0)  -->
<!DOCTYPE svg PUBLIC "-//W3C//DTD SVG 1.1//EN" "http://www.w3.org/Graphics/SVG/1.1/DTD/svg11.dtd">
<svg version="1.1" id="Layer_1" xmlns="http://www.w3.org/2000/svg" xmlns:xlink="http://www.w3.org/1999/xlink" x="0px" y="0px"
	 width="497.825px" height="492.863px" viewBox="0 0 497.825 492.863" enable-background="new 0 0 497.825 492.863"
	 xml:space="preserve">
<g>
	<rect x="-39.071" y="-42.111" display="none" width="576" height="576"/>
	<path fill="#FFFFFF" d="M219.323,174.461c1.154,62.218-49.516,112.888-111.734,111.734C48.953,285.109,1.107,237.262,0.02,178.625
		C-1.134,116.408,49.535,65.739,111.753,66.892C170.389,67.979,218.236,115.826,219.323,174.461"/>
	<path fill="#FFFFFF" d="M354.277,0.02c58.636,1.087,106.483,48.934,107.57,107.57c1.152,62.218-49.517,112.887-111.734,111.733
		c-58.636-1.087-106.483-48.933-107.57-107.569C241.391,49.535,292.06-1.135,354.277,0.02"/>
	<path fill="#FFFFFF" d="M483.292,346.087l-43.367-25.119c-2.96-1.715-4.781-4.879-4.775-8.3l0.086-61.174
		c0.005-3.421,1.834-6.58,4.8-8.287l43.437-24.997c6.39-3.677,14.363,0.942,14.354,8.314l-0.157,111.291
		C497.658,345.187,489.671,349.783,483.292,346.087"/>
	<path fill="#FFFFFF" d="M352.195,227.367c-37.548,0-70.984-17.588-92.533-44.97c-2.917-3.706-7.384-5.853-12.101-5.853h-4.698
		c-7.853,0-14.442,5.895-15.339,13.696c-6.79,59.069-56.965,104.939-117.854,104.939c-6.75,0-13.364-0.572-19.802-1.663
		c-9.494-1.609-18.191,5.563-18.191,15.192v59.686c0,8.535,6.919,15.455,15.455,15.455H421.99c8.536,0,15.455-6.92,15.455-15.455
		V223.072c0-12.084-13.253-19.509-23.536-13.164C395.967,220.979,374.827,227.367,352.195,227.367"/>
	<path fill="#FFFFFF" d="M57.067,391.759v101.104h395.431V391.759H57.067z M402.19,396.393h8.006c3.955,0,7.16,3.206,7.16,7.161
		c0,3.956-3.205,7.162-7.16,7.162h-8.006c-3.954,0-7.16-3.206-7.16-7.162C395.03,399.599,398.236,396.393,402.19,396.393z
		 M310.354,396.393h8.005c3.954,0,7.161,3.206,7.161,7.161c0,3.956-3.207,7.162-7.161,7.162h-8.005
		c-3.954,0-7.161-3.206-7.161-7.162C303.193,399.599,306.4,396.393,310.354,396.393z M338.409,451.981
		c4.686,6.594,8.188,11.51,10.507,14.745h-13.188l-14.854-19.998l-5.072,5.651v14.347h-11.304v-50.648h11.304v20.796l19.129-20.796
		h13.984l-20.144,22.39C330.512,440.883,333.724,445.387,338.409,451.981z M220.73,396.393h8.004c3.955,0,7.162,3.206,7.162,7.161
		c0,3.956-3.207,7.162-7.162,7.162h-8.004c-3.955,0-7.162-3.206-7.162-7.162C213.568,399.599,216.775,396.393,220.73,396.393z
		 M130.789,396.393h8.004c3.956,0,7.162,3.206,7.162,7.161c0,3.956-3.206,7.162-7.162,7.162h-8.004
		c-3.955,0-7.161-3.206-7.161-7.162C123.628,399.599,126.834,396.393,130.789,396.393z M159.874,456.655v10.071h-32.896v-50.648
		h11.303v40.577H159.874z M68.231,396.393h8.004c3.955,0,7.162,3.206,7.162,7.161c0,3.956-3.207,7.162-7.162,7.162h-8.004
		c-3.955,0-7.162-3.206-7.162-7.162C61.069,399.599,64.276,396.393,68.231,396.393z M105.531,436.946v9.927H83.213v19.854H71.91
		v-50.648h34.78v9.927H83.213v10.941H105.531z M76.235,487.808h-8.004c-3.955,0-7.162-3.206-7.162-7.161
		c0-3.956,3.207-7.162,7.162-7.162h8.004c3.955,0,7.162,3.206,7.162,7.162C83.397,484.602,80.19,487.808,76.235,487.808z
		 M107.409,487.808h-8.004c-3.956,0-7.162-3.206-7.162-7.161c0-3.956,3.206-7.162,7.162-7.162h8.004
		c3.955,0,7.161,3.206,7.161,7.162C114.57,484.602,111.364,487.808,107.409,487.808z M107.409,410.716h-8.004
		c-3.956,0-7.162-3.206-7.162-7.162c0-3.955,3.206-7.161,7.162-7.161h8.004c3.955,0,7.161,3.206,7.161,7.161
		C114.57,407.51,111.364,410.716,107.409,410.716z M138.793,487.808h-8.004c-3.955,0-7.161-3.206-7.161-7.161
		c0-3.956,3.206-7.162,7.161-7.162h8.004c3.956,0,7.162,3.206,7.162,7.162C145.955,484.602,142.749,487.808,138.793,487.808z
		 M168.071,487.808h-8.004c-3.955,0-7.161-3.206-7.161-7.161c0-3.956,3.206-7.162,7.161-7.162h8.004
		c3.956,0,7.162,3.206,7.162,7.162C175.233,484.602,172.027,487.808,168.071,487.808z M168.071,410.716h-8.004
		c-3.955,0-7.161-3.206-7.161-7.162c0-3.955,3.206-7.161,7.161-7.161h8.004c3.956,0,7.162,3.206,7.162,7.161
		C175.233,407.51,172.027,410.716,168.071,410.716z M178.858,416.078h11.303v50.648h-11.303V416.078z M198.403,487.808h-8.004
		c-3.956,0-7.162-3.206-7.162-7.161c0-3.956,3.206-7.162,7.162-7.162h8.004c3.955,0,7.161,3.206,7.161,7.162
		C205.564,484.602,202.358,487.808,198.403,487.808z M198.403,410.716h-8.004c-3.956,0-7.162-3.206-7.162-7.162
		c0-3.955,3.206-7.161,7.162-7.161h8.004c3.955,0,7.161,3.206,7.161,7.161C205.564,407.51,202.358,410.716,198.403,410.716z
		 M228.734,487.808h-8.004c-3.955,0-7.162-3.206-7.162-7.161c0-3.956,3.207-7.162,7.162-7.162h8.004
		c3.955,0,7.162,3.206,7.162,7.162C235.896,484.602,232.689,487.808,228.734,487.808z M232.258,450.061l-10.724,16.665h-13.622
		l17.028-25.94l-15.869-24.708h13.55l9.637,14.999l9.637-14.999h13.623l-15.797,24.419l17.1,26.229h-13.767L232.258,450.061z
		 M259.908,487.808h-8.004c-3.956,0-7.163-3.206-7.163-7.161c0-3.956,3.207-7.162,7.163-7.162h8.004
		c3.955,0,7.162,3.206,7.162,7.162C267.07,484.602,263.863,487.808,259.908,487.808z M259.908,410.716h-8.004
		c-3.956,0-7.163-3.206-7.163-7.162c0-3.955,3.207-7.161,7.163-7.161h8.004c3.955,0,7.162,3.206,7.162,7.161
		C267.07,407.51,263.863,410.716,259.908,410.716z M289.081,487.808h-8.004c-3.956,0-7.162-3.206-7.162-7.161
		c0-3.956,3.206-7.162,7.162-7.162h8.004c3.955,0,7.161,3.206,7.161,7.162C296.242,484.602,293.036,487.808,289.081,487.808z
		 M289.081,410.716h-8.004c-3.956,0-7.162-3.206-7.162-7.162c0-3.955,3.206-7.161,7.162-7.161h8.004
		c3.955,0,7.161,3.206,7.161,7.161C296.242,407.51,293.036,410.716,289.081,410.716z M318.359,487.808h-8.005
		c-3.954,0-7.161-3.206-7.161-7.161c0-3.956,3.207-7.162,7.161-7.162h8.005c3.954,0,7.161,3.206,7.161,7.162
		C325.521,484.602,322.313,487.808,318.359,487.808z M348.689,487.808h-8.004c-3.955,0-7.161-3.206-7.161-7.161
		c0-3.956,3.206-7.162,7.161-7.162h8.004c3.956,0,7.162,3.206,7.162,7.162C355.852,484.602,352.646,487.808,348.689,487.808z
		 M348.689,410.716h-8.004c-3.955,0-7.161-3.206-7.161-7.162c0-3.955,3.206-7.161,7.161-7.161h8.004
		c3.956,0,7.162,3.206,7.162,7.161C355.852,407.51,352.646,410.716,348.689,410.716z M379.021,487.808h-8.004
		c-3.956,0-7.162-3.206-7.162-7.161c0-3.956,3.206-7.162,7.162-7.162h8.004c3.955,0,7.161,3.206,7.161,7.162
		C386.183,484.602,382.977,487.808,379.021,487.808z M366.739,466.726v-50.648h11.304v50.648H366.739z M379.021,410.716h-8.004
		c-3.956,0-7.162-3.206-7.162-7.162c0-3.955,3.206-7.161,7.162-7.161h8.004c3.955,0,7.161,3.206,7.161,7.161
		C386.183,407.51,382.977,410.716,379.021,410.716z M410.196,487.808h-8.006c-3.954,0-7.16-3.206-7.16-7.161
		c0-3.956,3.206-7.162,7.16-7.162h8.006c3.955,0,7.16,3.206,7.16,7.162C417.356,484.602,414.151,487.808,410.196,487.808z
		 M422.748,466.726h-11.303V425.86h-14.347v-9.782h39.996v9.782h-14.347V466.726z M441.58,487.808h-8.004
		c-3.955,0-7.162-3.206-7.162-7.161c0-3.956,3.207-7.162,7.162-7.162h8.004c3.955,0,7.162,3.206,7.162,7.162
		C448.742,484.602,445.535,487.808,441.58,487.808z M441.58,410.716h-8.004c-3.955,0-7.162-3.206-7.162-7.162
		c0-3.955,3.207-7.161,7.162-7.161h8.004c3.955,0,7.162,3.206,7.162,7.161C448.742,407.51,445.535,410.716,441.58,410.716z"/>
</g>
</svg>
