<?xml version="1.0" encoding="utf-8"?>
<!-- Generator: Adobe Illustrator 16.0.0, SVG Export Plug-In . SVG Version: 6.00 Build 0)  -->
<!DOCTYPE svg PUBLIC "-//W3C//DTD SVG 1.1//EN" "http://www.w3.org/Graphics/SVG/1.1/DTD/svg11.dtd">
<svg version="1.1" xmlns="http://www.w3.org/2000/svg" xmlns:xlink="http://www.w3.org/1999/xlink" x="0px" y="0px" width="300px"
	 height="300px" viewBox="0 0 300 300" enable-background="new 0 0 300 300" xml:space="preserve">
<g id="step1">
	<line fill="none" stroke="#000000" stroke-miterlimit="10" x1="60.5" y1="157.5" x2="38.334" y2="203"/>
	<line fill="none" stroke="#000000" stroke-miterlimit="10" x1="242.334" y1="157.5" x2="264.5" y2="203"/>
	<g>
		<path fill="#FFFFFF" d="M243,279c0,1.657-1.343,3-3,3H62c-1.657,0-3-1.343-3-3V160c0-1.657,1.343-3,3-3h178c1.657,0,3,1.343,3,3
			V279z"/>
		<path fill="none" stroke="#000000" stroke-miterlimit="10" d="M243.5,278.5c0,1.65-1.35,3-3,3h-178c-1.65,0-3-1.35-3-3v-119
			c0-1.65,1.35-3,3-3h178c1.65,0,3,1.35,3,3V278.5z"/>
	</g>
	<g>
		<path fill="#FFFFFF" d="M62.834,156.336c-1.65-0.002-2.434,1.223-1.741,2.72l16.982,36.972c0.692,1.497,2.608,2.973,4.259,2.973
			h143.979c1.65,0,3.432-1.529,3.96-3.092l12.267-36.441c0.528-1.562-0.39-2.905-2.04-2.907L62.834,156.336z"/>
		<path fill="none" stroke="#000000" stroke-miterlimit="10" d="M62.834,156.336c-1.65-0.002-2.434,1.223-1.741,2.72l16.982,36.722
			c0.692,1.497,2.608,2.723,4.259,2.723h143.979c1.65,0,3.432-1.279,3.96-2.842l12.267-36.316c0.528-1.562-0.39-2.843-2.04-2.845
			L62.834,156.336z"/>
	</g>
	<g>
		<path fill="#FFFFFF" d="M243,279c0,1.657-1.343,3-3,3H62c-1.657,0-3-1.343-3-3V160c0-1.657,1.343-3,3-3h178c1.657,0,3,1.343,3,3
			V279z"/>
		<path fill="none" stroke="#000000" stroke-miterlimit="10" d="M243.5,278.5c0,1.65-1.35,3-3,3h-178c-1.65,0-3-1.35-3-3v-119
			c0-1.65,1.35-3,3-3h178c1.65,0,3,1.35,3,3V278.5z"/>
	</g>
	<g>
		<path fill="#FFFFFF" d="M62.834,156.336c-1.65-0.002-2.434,1.223-1.741,2.72l16.982,36.972c0.692,1.497,2.608,2.973,4.259,2.973
			h143.979c1.65,0,3.432-1.529,3.96-3.092l12.267-36.441c0.528-1.562-0.39-2.905-2.04-2.907L62.834,156.336z"/>
		<path fill="none" stroke="#000000" stroke-miterlimit="10" d="M62.834,156.336c-1.65-0.002-2.434,1.223-1.741,2.72l16.982,36.722
			c0.692,1.497,2.608,2.723,4.259,2.723h143.979c1.65,0,3.432-1.279,3.96-2.842l12.267-36.316c0.528-1.562-0.39-2.843-2.04-2.845
			L62.834,156.336z"/>
	</g>
</g>
<g id="step2">
	
		<rect x="65.499" y="149.5" transform="matrix(1 0.0029 -0.0029 1 0.5834 -0.2921)" fill="#E75200" stroke="#000000" stroke-miterlimit="10" width="69.001" height="99"/>
	
		<rect x="132.499" y="68.501" transform="matrix(0.7022 -0.7119 0.7119 0.7022 -34.2839 154.027)" fill="#3ABEEF" stroke="#000000" stroke-miterlimit="10" width="69.001" height="98.999"/>
	<rect x="16.382" y="23.105" fill="none" width="267.235" height="40.85"/>
	<text transform="matrix(1 0 0 1 16.3818 39.4287)"><tspan x="0" y="0" font-family="'Montserrat-Bold'" font-size="22">Step 2</tspan><tspan x="71.081" y="0" font-family="'Montserrat-Regular'" font-size="22">: Pick your candy.</tspan></text>
	<line fill="none" stroke="#000000" stroke-miterlimit="10" x1="60.5" y1="157.5" x2="38.334" y2="203"/>
	<line fill="none" stroke="#000000" stroke-miterlimit="10" x1="242.334" y1="157.5" x2="264.5" y2="203"/>
	<g>
		<path fill="#FFFFFF" d="M243,279c0,1.657-1.343,3-3,3H62c-1.657,0-3-1.343-3-3V160c0-1.657,1.343-3,3-3h178c1.657,0,3,1.343,3,3
			V279z"/>
		<path fill="none" stroke="#000000" stroke-miterlimit="10" d="M243.5,278.5c0,1.65-1.35,3-3,3h-178c-1.65,0-3-1.35-3-3v-119
			c0-1.65,1.35-3,3-3h178c1.65,0,3,1.35,3,3V278.5z"/>
	</g>
	<g>
		<path fill="#FFFFFF" d="M62.834,156.336c-1.65-0.002-2.434,1.223-1.741,2.72l16.982,36.972c0.692,1.497,2.608,2.973,4.259,2.973
			h143.979c1.65,0,3.432-1.529,3.96-3.092l12.267-36.441c0.528-1.562-0.39-2.905-2.04-2.907L62.834,156.336z"/>
		<path fill="none" stroke="#000000" stroke-miterlimit="10" d="M62.834,156.336c-1.65-0.002-2.434,1.223-1.741,2.72l16.982,36.722
			c0.692,1.497,2.608,2.723,4.259,2.723h143.979c1.65,0,3.432-1.279,3.96-2.842l12.267-36.316c0.528-1.562-0.39-2.843-2.04-2.845
			L62.834,156.336z"/>
	</g>
</g>
<g id="step3">
</g>
<g id="step4">
</g>
</svg>
