<?xml version="1.0" encoding="utf-8"?>
<!-- Generator: Adobe Illustrator 16.0.0, SVG Export Plug-In . SVG Version: 6.00 Build 0)  -->
<!DOCTYPE svg PUBLIC "-//W3C//DTD SVG 1.1//EN" "http://www.w3.org/Graphics/SVG/1.1/DTD/svg11.dtd">
<svg version="1.1" xmlns="http://www.w3.org/2000/svg" xmlns:xlink="http://www.w3.org/1999/xlink" x="0px" y="0px" width="300px"
	 height="300px" viewBox="0 0 300 300" enable-background="new 0 0 300 300" xml:space="preserve">
<g id="step1">
</g>
<g id="step2">
</g>
<g id="step3">
</g>
<g id="step4">
	
		<rect x="153.499" y="163.501" transform="matrix(1 -0.0068 0.0068 1 -1.4517 1.2901)" fill="#3ABEEF" stroke="#000000" stroke-width="2" stroke-miterlimit="10" width="69.001" height="98.999"/>
	
		<rect x="107.499" y="157.502" transform="matrix(0.9999 -0.0101 0.0101 0.9999 -2.0933 1.4516)" fill="#FDCE0B" stroke="#000000" stroke-width="2" stroke-miterlimit="10" width="69" height="98.998"/>
	<g>
		
			<rect x="132.563" y="124.094" transform="matrix(0.9077 -0.4196 0.4196 0.9077 -53.6631 82.0569)" fill="#FFFFFF" stroke="#000000" stroke-width="2" stroke-miterlimit="10" width="54.238" height="77.821"/>
		<g>
			<path d="M166.078,168.897l-5.997,2.794l-1.507-3.234c-0.658-1.414-0.98-2.547-0.966-3.391c0.016-0.849,0.325-2.102,0.93-3.76
				l2.068-5.676c0.399-1.262,0.299-2.549-0.312-3.859c-0.609-1.308-1.543-2.197-2.793-2.668c-1.254-0.472-2.552-0.393-3.895,0.233
				c-1.344,0.625-2.272,1.563-2.787,2.814c-0.515,1.252-0.523,2.601-0.023,4.047l-6.419,2.99c-1.112-3.312-1.031-6.352,0.239-9.117
				c1.275-2.767,3.484-4.883,6.631-6.35c3.147-1.466,6.111-1.804,8.893-1.011c2.78,0.792,4.885,2.726,6.318,5.804
				c0.988,2.122,1.229,4.162,0.723,6.118c-0.277,1.164-0.512,2.004-0.7,2.522c-0.19,0.52-0.446,1.188-0.772,2.008
				c-0.332,0.822-0.602,1.527-0.822,2.124c-0.217,0.598-0.385,1.093-0.499,1.491c-0.272,1.075-0.08,2.319,0.579,3.733
				L166.078,168.897z M168.673,182.024c-1.114,0.519-2.254,0.586-3.42,0.203c-1.171-0.381-2.005-1.108-2.507-2.187
				c-0.503-1.08-0.537-2.193-0.105-3.343c0.436-1.15,1.209-1.983,2.322-2.502c1.114-0.52,2.253-0.589,3.424-0.207
				c1.166,0.383,2,1.112,2.503,2.19c0.503,1.08,0.538,2.193,0.105,3.34C170.564,180.669,169.787,181.505,168.673,182.024z"/>
		</g>
	</g>
	
		<rect x="78.499" y="166.499" transform="matrix(1 0.0029 -0.0029 1 0.6333 -0.3301)" fill="#E75200" stroke="#000000" stroke-width="2" stroke-miterlimit="10" width="69.001" height="99"/>
	<rect x="34.05" y="23.105" fill="none" width="241.901" height="98.999"/>
	<text transform="matrix(1 0 0 1 34.0498 38.6865)"><tspan x="0" y="0" font-family="'Montserrat-Bold'" font-size="21">Step 4</tspan><tspan x="67.493" y="0" font-family="'Montserrat-Regular'" font-size="21">: Pick anything </tspan><tspan x="0" y="25.2" font-family="'Montserrat-Regular'" font-size="21">else you would like to </tspan><tspan x="0" y="50.4" font-family="'Montserrat-Regular'" font-size="21">add to make your kit.</tspan></text>
	<g>
		<line fill="none" stroke="#000000" stroke-width="3" stroke-miterlimit="10" x1="73.096" y1="178.77" x2="54.73" y2="216.465"/>
		
			<line fill="none" stroke="#000000" stroke-width="3" stroke-miterlimit="10" x1="223.739" y1="178.77" x2="242.103" y2="216.465"/>
		<g>
			<path fill="#FFFFFF" d="M224,279c0,1.657-1.343,3-3,3H75c-1.657,0-3-1.343-3-3v-98c0-1.657,1.343-3,3-3h146c1.657,0,3,1.343,3,3
				V279z"/>
			<path fill="none" stroke="#000000" stroke-width="3" stroke-miterlimit="10" d="M224.5,278.5c0,1.657-1.343,3-3,3h-146
				c-1.657,0-3-1.343-3-3v-98c0-1.657,1.343-3,3-3h146c1.657,0,3,1.343,3,3V278.5z"/>
		</g>
		<g>
			<path fill="#FFFFFF" d="M75.543,177.806c-1.65-0.002-2.434,1.223-1.741,2.72l13.637,29.621c0.692,1.496,2.608,2.854,4.259,2.854
				h118.255c1.65,0,3.432-1.41,3.96-2.973l9.833-29.179c0.528-1.562-0.39-2.875-2.04-2.877L75.543,177.806z"/>
			<path fill="none" stroke="#000000" stroke-width="3" stroke-miterlimit="10" d="M75.543,177.806
				c-1.65-0.002-2.434,1.223-1.741,2.72l13.637,29.371c0.692,1.496,2.608,2.604,4.259,2.604h118.255c1.65,0,3.432-1.16,3.96-2.723
				l9.833-29.054c0.528-1.562-0.39-2.812-2.04-2.814L75.543,177.806z"/>
		</g>
	</g>
	<g>
		<path fill="none" stroke="#000000" stroke-width="3" stroke-linecap="round" stroke-miterlimit="10" d="M243.137,108.548
			c0,0-38.514,1.154-53.184,30.571"/>
		
			<line fill="none" stroke="#000000" stroke-width="3" stroke-linecap="round" stroke-miterlimit="10" x1="189.953" y1="139.119" x2="206.232" y2="139.742"/>
		
			<line fill="none" stroke="#000000" stroke-width="3" stroke-linecap="round" stroke-miterlimit="10" x1="189.953" y1="139.119" x2="188.724" y2="124.105"/>
	</g>
</g>
</svg>
