<?xml version="1.0" encoding="utf-8"?>
<!-- Generator: Adobe Illustrator 16.0.0, SVG Export Plug-In . SVG Version: 6.00 Build 0)  -->
<!DOCTYPE svg PUBLIC "-//W3C//DTD SVG 1.1//EN" "http://www.w3.org/Graphics/SVG/1.1/DTD/svg11.dtd">
<svg version="1.1" xmlns="http://www.w3.org/2000/svg" xmlns:xlink="http://www.w3.org/1999/xlink" x="0px" y="0px" width="300px"
	 height="300px" viewBox="0 0 300 300" enable-background="new 0 0 300 300" xml:space="preserve">
<g id="step1">
	<line fill="none" stroke="#000000" stroke-miterlimit="10" x1="55.5" y1="157.5" x2="33.334" y2="203"/>
	<line fill="none" stroke="#000000" stroke-miterlimit="10" x1="237.334" y1="157.5" x2="259.5" y2="203"/>
	<g>
		<path fill="#FFFFFF" d="M238,279c0,1.657-1.343,3-3,3H57c-1.657,0-3-1.343-3-3V160c0-1.657,1.343-3,3-3h178c1.657,0,3,1.343,3,3
			V279z"/>
		<path fill="none" stroke="#000000" stroke-miterlimit="10" d="M238.5,278.5c0,1.65-1.35,3-3,3h-178c-1.65,0-3-1.35-3-3v-119
			c0-1.65,1.35-3,3-3h178c1.65,0,3,1.35,3,3V278.5z"/>
	</g>
	<g>
		<path fill="#FFFFFF" d="M57.834,156.336c-1.65-0.002-2.434,1.223-1.741,2.72l16.982,36.972c0.692,1.497,2.608,2.973,4.259,2.973
			h143.979c1.65,0,3.432-1.529,3.96-3.092l12.267-36.441c0.528-1.562-0.39-2.905-2.04-2.907L57.834,156.336z"/>
		<path fill="none" stroke="#000000" stroke-miterlimit="10" d="M57.834,156.336c-1.65-0.002-2.434,1.223-1.741,2.72l16.982,36.722
			c0.692,1.497,2.608,2.723,4.259,2.723h143.979c1.65,0,3.432-1.279,3.96-2.842l12.267-36.316c0.528-1.562-0.39-2.843-2.04-2.845
			L57.834,156.336z"/>
	</g>
	<g>
		<path fill="#FFFFFF" d="M238,279c0,1.657-1.343,3-3,3H57c-1.657,0-3-1.343-3-3V160c0-1.657,1.343-3,3-3h178c1.657,0,3,1.343,3,3
			V279z"/>
		<path fill="none" stroke="#000000" stroke-miterlimit="10" d="M238.5,278.5c0,1.65-1.35,3-3,3h-178c-1.65,0-3-1.35-3-3v-119
			c0-1.65,1.35-3,3-3h178c1.65,0,3,1.35,3,3V278.5z"/>
	</g>
	<g>
		<path fill="#FFFFFF" d="M57.834,156.336c-1.65-0.002-2.434,1.223-1.741,2.72l16.982,36.972c0.692,1.497,2.608,2.973,4.259,2.973
			h143.979c1.65,0,3.432-1.529,3.96-3.092l12.267-36.441c0.528-1.562-0.39-2.905-2.04-2.907L57.834,156.336z"/>
		<path fill="none" stroke="#000000" stroke-miterlimit="10" d="M57.834,156.336c-1.65-0.002-2.434,1.223-1.741,2.72l16.982,36.722
			c0.692,1.497,2.608,2.723,4.259,2.723h143.979c1.65,0,3.432-1.279,3.96-2.842l12.267-36.316c0.528-1.562-0.39-2.843-2.04-2.845
			L57.834,156.336z"/>
	</g>
</g>
<g id="step2">
</g>
<g id="step3">
</g>
<g id="step4">
	
		<rect x="166.499" y="143.502" transform="matrix(1 -0.0068 0.0068 1 -1.3146 1.3785)" fill="#3ABEEF" stroke="#000000" stroke-miterlimit="10" width="69.001" height="98.999"/>
	
		<rect x="100.499" y="140.502" transform="matrix(0.9999 -0.0101 0.0101 0.9999 -1.9211 1.3797)" fill="#FDCE0B" stroke="#000000" stroke-miterlimit="10" width="69" height="98.998"/>
	
		<rect x="60.499" y="149.5" transform="matrix(1 0.0029 -0.0029 1 0.5834 -0.2775)" fill="#E75200" stroke="#000000" stroke-miterlimit="10" width="69.001" height="99"/>
	<rect x="29.05" y="23.105" fill="none" width="241.901" height="98.999"/>
	<text transform="matrix(1 0 0 1 29.0498 39.4287)"><tspan x="0" y="0" font-family="'Montserrat-Bold'" font-size="22">Step 4</tspan><tspan x="70.706" y="0" font-family="'Montserrat-Regular'" font-size="22">: Pick anything </tspan><tspan x="0" y="26.4" font-family="'Montserrat-Regular'" font-size="22">else you would like to </tspan><tspan x="0" y="52.8" font-family="'Montserrat-Regular'" font-size="22">add to make your kit.</tspan></text>
	<line fill="none" stroke="#000000" stroke-miterlimit="10" x1="55.5" y1="157.5" x2="33.334" y2="203"/>
	<line fill="none" stroke="#000000" stroke-miterlimit="10" x1="237.334" y1="157.5" x2="259.5" y2="203"/>
	<g>
		<path fill="#FFFFFF" d="M238,279c0,1.657-1.343,3-3,3H57c-1.657,0-3-1.343-3-3V160c0-1.657,1.343-3,3-3h178c1.657,0,3,1.343,3,3
			V279z"/>
		<path fill="none" stroke="#000000" stroke-miterlimit="10" d="M238.5,278.5c0,1.65-1.35,3-3,3h-178c-1.65,0-3-1.35-3-3v-119
			c0-1.65,1.35-3,3-3h178c1.65,0,3,1.35,3,3V278.5z"/>
	</g>
	<g>
		<path fill="#FFFFFF" d="M57.834,156.336c-1.65-0.002-2.434,1.223-1.741,2.72l16.982,36.972c0.692,1.497,2.608,2.973,4.259,2.973
			h143.979c1.65,0,3.432-1.529,3.96-3.092l12.267-36.441c0.528-1.562-0.39-2.905-2.04-2.907L57.834,156.336z"/>
		<path fill="none" stroke="#000000" stroke-miterlimit="10" d="M57.834,156.336c-1.65-0.002-2.434,1.223-1.741,2.72l16.982,36.722
			c0.692,1.497,2.608,2.723,4.259,2.723h143.979c1.65,0,3.432-1.279,3.96-2.842l12.267-36.316c0.528-1.562-0.39-2.843-2.04-2.845
			L57.834,156.336z"/>
	</g>
</g>
</svg>
